<?xml version="1.0" encoding="UTF-8"?>
<!DOCTYPE svg PUBLIC "-//W3C//DTD SVG 1.1//EN" "http://www.w3.org/Graphics/SVG/1.1/DTD/svg11.dtd">
<!-- Creator: CorelDRAW 2020 (64 Bit) -->
<svg xmlns="http://www.w3.org/2000/svg" xml:space="preserve" width="135.467mm" height="76.2mm" version="1.1" style="shape-rendering:geometricPrecision; text-rendering:geometricPrecision; image-rendering:optimizeQuality; fill-rule:evenodd; clip-rule:evenodd"
viewBox="0 0 13546.66 7620"
 xmlns:xlink="http://www.w3.org/1999/xlink"
 xmlns:xodm="http://www.corel.com/coreldraw/odm/2003">
 <defs>
  <style type="text/css">
   <![CDATA[
    .str0 {stroke:#9900CC;stroke-width:279.4;stroke-miterlimit:22.9256}
    .fil0 {fill:none}
    .fil1 {fill:#9900CC}
    .fil2 {fill:#9900CC}
    .fil5 {fill:#E6E6E6}
    .fil6 {fill:white}
    .fil4 {fill:white;fill-rule:nonzero}
    .fil3 {fill:url(#id0)}
   ]]>
  </style>
  <linearGradient id="id0" gradientUnits="userSpaceOnUse" x1="7060.85" y1="1603.83" x2="15911.48" y2="-12463.27">
   <stop offset="0" style="stop-opacity:1; stop-color:#9900CC"/>
   <stop offset="1" style="stop-opacity:1; stop-color:white"/>
  </linearGradient>
 </defs>
 <g id="Camada_x0020_1">
  <metadata id="CorelCorpID_0Corel-Layer"/>
  <polygon class="fil0" points="4826,-8136.47 13970,-8136.47 13970,1007.53 4826,1007.53 "/>
  <path class="fil0 str0" d="M13094.64 -4884.25l0 4749.25m-7129.23 -139.14l7129.19 0m-7129.15 139.14l0 -5253.5"/>
  <polygon class="fil1" points="12955.48,-4637.21 13233.7,-4637.21 13233.7,-5969.4 12677.28,-5969.4 12677.28,-6525.82 11425.33,-6525.82 11425.33,-6108.5 11564.43,-6108.5 11564.43,-5552.08 10729.79,-5552.08 10729.79,-6108.5 10868.89,-6108.5 10868.89,-6525.82 10034.28,-6525.82 10034.28,-6108.5 10173.38,-6108.5 10173.38,-5552.08 9338.74,-5552.08 9338.74,-6108.5 9477.84,-6108.5 9477.84,-6525.82 8643.2,-6525.82 8643.2,-6108.5 8782.32,-6108.5 8782.32,-5552.08 7947.69,-5552.08 7947.69,-6108.5 8086.79,-6108.5 8086.79,-6525.82 7252.15,-6525.82 7252.15,-6108.5 7391.27,-6108.5 7391.27,-5552.08 6556.63,-5552.08 6556.63,-6108.5 6695.73,-6108.5 6695.73,-6525.82 5443.78,-6525.82 5443.78,-5134.76 12677.28,-5134.76 12677.28,-5691.18 12955.48,-5691.18 "/>
  <polygon class="fil2" points="6834.83,-5969.4 6695.73,-5969.4 6695.73,-5691.18 7252.15,-5691.18 7252.15,-5969.4 7113.05,-5969.4 7113.05,-6943.13 6834.83,-6943.13 "/>
  <polygon class="fil2" points="9616.96,-5969.4 9477.84,-5969.4 9477.84,-5691.18 10034.28,-5691.18 10034.28,-5969.4 9895.16,-5969.4 9895.16,-6943.13 9616.96,-6943.13 "/>
  <polygon class="fil2" points="11008.01,-5969.4 10868.89,-5969.4 10868.89,-5691.18 11425.33,-5691.18 11425.33,-5969.4 11286.21,-5969.4 11286.21,-6943.13 11008.01,-6943.13 "/>
  <polygon class="fil2" points="8225.91,-5969.4 8086.79,-5969.4 8086.79,-5691.18 8643.2,-5691.18 8643.2,-5969.4 8504.1,-5969.4 8504.1,-6943.13 8225.91,-6943.13 "/>
  <polygon class="fil3" points="5443.76,-5152.16 12642.47,-5152.16 12642.47,-743.58 5443.76,-743.58 "/>
  <path class="fil4" d="M8459.26 -3977.86l-255.53 1455.93c-35.66,202.05 -121.83,359.03 -258.51,470.95 -136.68,111.92 -303.07,167.88 -499.17,167.88 -174.32,0 -311.99,-44.08 -413.01,-132.22 -101.03,-88.15 -151.54,-212.45 -151.54,-372.9 0,-43.58 4.95,-93.1 14.86,-148.56l418.95 0c-3.96,19.8 -5.94,46.55 -5.94,80.22 0,134.7 65.37,202.05 196.1,202.05 75.28,0 136.68,-23.77 184.22,-71.31 47.54,-47.54 79.24,-112.91 95.08,-196.11l255.54 -1455.93 418.95 0zm2745.47 0l-365.47 2073.96 -418.95 0 237.71 -1343.02 -790.37 1343.02 -317.92 0 -317.93 -1345.99 -237.71 1345.99 -418.95 0 368.44 -2073.96 472.44 0 389.24 1539.13 927.04 -1539.13 472.43 0z"/>
  <polygon class="fil5" points="11777.13,-762 11779.06,-1544.47 12611.72,-1544.47 "/>
  <polygon class="fil6" points="12661.86,-1491.28 12659.89,-691.42 11790.48,-691.42 "/>
 </g>
</svg>
